<svg width="182" height="182" viewBox="0 0 182 182" fill="none" xmlns="http://www.w3.org/2000/svg">
<path opacity="0.3" d="M159.064 155.787C154.373 160.622 150.176 163.464 146.963 165.61C115.621 186.537 79.7948 180.505 68.7181 178.444C50.8473 175.118 35.7619 172.771 22.8007 161.061C-6.65083 134.453 -5.21836 78.9462 17.2863 44.5621C19.9546 40.4852 42.4251 7.17688 78.3292 2.48345C79.2074 2.36864 79.8626 2.30326 80.4365 2.24255C85.9907 1.6545 120.409 -1.44927 148.475 22.0636C152.492 25.4294 158.957 31.5003 164.952 40.7595C186.874 74.6152 186.943 127.05 159.064 155.787Z" fill="#136EAC"/>
<path d="M146.054 11.5679C146.158 10.6171 147.433 10.3705 147.897 11.2067C152.616 19.6977 162.754 43.8478 148.113 75.7013C129.744 115.666 133.553 133.612 141.375 146.317C141.375 146.317 127.959 137.227 123.567 118.849C112.785 73.7277 144.196 28.4751 146.054 11.5679Z" fill="#136EAC"/>
<path d="M147.032 26.1988C146.395 31.0982 145.661 35.9825 144.751 40.8329C143.865 45.6873 142.833 50.5126 141.652 55.2989C140.453 60.0802 139.164 64.8383 137.675 69.5345C136.208 74.2372 134.54 78.8716 132.848 83.5188C131.184 88.1727 129.481 92.8516 128.252 97.719C127.021 102.575 126.35 107.656 126.627 112.709C126.698 113.969 126.791 115.233 126.959 116.478C127.103 117.727 127.302 118.97 127.524 120.208C127.979 122.684 128.6 125.134 129.4 127.527C131.012 132.309 133.351 136.842 136.208 140.959C136.509 141.392 137.104 141.5 137.537 141.199C137.963 140.904 138.074 140.325 137.793 139.893L137.791 139.89C137.124 138.869 136.47 137.842 135.864 136.789C135.553 136.267 135.265 135.733 134.968 135.204C134.69 134.664 134.392 134.135 134.132 133.588C133.054 131.416 132.13 129.172 131.377 126.87C129.849 122.279 129 117.435 128.726 112.609C128.617 110.193 128.685 107.773 128.94 105.367C129.197 102.961 129.638 100.571 130.217 98.2049C131.375 93.4691 133.022 88.8241 134.652 84.1585C136.277 79.4898 137.878 74.787 139.283 70.0257C139.992 67.6472 140.658 65.2563 141.28 62.8546C141.599 61.6556 141.894 60.4507 142.191 59.2465C142.476 58.0394 142.755 56.8309 143.024 55.6205C144.091 50.7763 145.01 45.9019 145.773 41.0054C146.513 36.1051 147.122 31.1869 147.541 26.2535C147.553 26.1125 147.449 25.9885 147.308 25.9765C147.171 25.9649 147.05 26.0639 147.032 26.1988Z" fill="white"/>
<path d="M144.243 137.412C142.959 138.619 140.859 138.122 140.231 136.475C136.763 127.388 129.282 100.811 146.076 71.7383C160.257 47.1877 165.614 32.5278 167.584 25.7042C168.001 24.2613 170.017 24.1891 170.539 25.5974C176.295 41.1356 190.791 93.679 144.243 137.412Z" fill="#67B9F1"/>
<path d="M142.108 136.345C142.065 136.35 142.02 136.351 141.975 136.348C141.596 136.319 141.312 135.988 141.341 135.609C141.374 135.18 144.826 92.2488 163.002 57.2222C163.177 56.8853 163.592 56.7536 163.93 56.9283C164.267 57.1035 164.399 57.5188 164.224 57.8563C146.18 92.6279 142.746 135.287 142.714 135.714C142.688 136.048 142.429 136.308 142.108 136.345Z" fill="white"/>
<path d="M15.999 32.6476C15.999 26.4717 21.0056 21.4651 27.1816 21.4651H122.279C127.525 21.4651 131.851 25.5766 132.118 30.8163L139.138 168.69C139.347 172.79 136.119 176.248 132.014 176.323L23.0205 178.304C19.1635 178.374 15.999 175.267 15.999 171.409L15.999 32.6476Z" fill="url(#paint0_linear_29_123)"/>
<path d="M38.9498 175.96C38.9486 175.96 38.9475 175.96 38.9464 175.96L26.7506 175.802C22.6726 175.749 19.355 172.389 19.355 168.31V149.897C19.355 149.753 19.4715 149.637 19.6153 149.637C19.7591 149.637 19.8757 149.753 19.8757 149.897V168.31C19.8757 172.105 22.9628 175.232 26.7573 175.282L38.953 175.439C39.0968 175.441 39.2118 175.559 39.21 175.703C39.2081 175.845 39.092 175.96 38.9498 175.96Z" fill="white"/>
<path d="M19.6157 144.454C19.4719 144.454 19.3553 144.337 19.3553 144.193V141.211C19.3553 141.067 19.4719 140.951 19.6157 140.951C19.7595 140.951 19.8761 141.067 19.8761 141.211V144.193C19.876 144.337 19.7595 144.454 19.6157 144.454Z" fill="white"/>
<path d="M23.7897 23.5871C23.7781 21.6112 25.5158 20.0818 27.4739 20.3474C40.4603 22.1085 85.1171 27.5552 122.039 24.7209C123.723 24.5917 125.184 25.8674 125.274 27.5537L132.634 166.042C132.735 167.941 131.285 169.564 129.387 169.677C113.858 170.596 49.9064 174.148 27.0958 171.759C25.7076 171.613 24.6537 170.445 24.6455 169.049L23.7897 23.5871Z" fill="url(#paint1_linear_29_123)"/>
<path opacity="0.6" d="M25.3195 27.0577C25.3083 25.1562 26.9806 23.6844 28.865 23.94C41.3623 25.6348 84.3376 30.8764 119.869 28.1488C121.489 28.0244 122.896 29.2522 122.982 30.875L130.065 164.148C130.162 165.975 128.767 167.538 126.94 167.646C111.996 168.531 50.4526 171.949 28.501 169.65C27.165 169.51 26.1508 168.385 26.1429 167.042L25.3195 27.0577Z" fill="white"/>
<g opacity="0.6">
<path d="M26.7646 121.065C27.0456 121.809 28.0136 122.326 29.1156 122.319L118.926 121.784C119.942 121.778 120.755 121.193 120.733 120.483C120.711 119.793 119.906 119.241 118.919 119.238L29.106 118.951C27.5207 118.946 26.3603 119.994 26.7646 121.065Z" fill="white"/>
</g>
<g opacity="0.6">
<path d="M26.7646 135.599C27.0456 136.344 28.0136 136.86 29.1156 136.854L118.926 136.319C119.942 136.313 120.755 135.727 120.733 135.018C120.711 134.328 119.906 133.775 118.919 133.772L29.106 133.486C27.5207 133.481 26.3603 134.528 26.7646 135.599Z" fill="white"/>
</g>
<g opacity="0.6">
<path d="M26.7238 150.134C26.8633 150.878 27.3439 151.395 27.8911 151.388L72.4815 150.853C72.9859 150.847 73.3895 150.262 73.3784 149.552C73.3676 148.862 72.9682 148.31 72.4778 148.306L27.8863 148.02C27.0992 148.015 26.523 149.063 26.7238 150.134Z" fill="white"/>
</g>
<g opacity="0.6">
<path d="M36.3229 63.0662C36.563 63.8107 37.39 64.3271 38.3314 64.3206L115.057 63.7856C115.925 63.7796 116.619 63.1942 116.6 62.4845C116.582 61.7945 115.895 61.2422 115.051 61.2391L38.3233 60.9529C36.9689 60.9479 35.9775 61.9952 36.3229 63.0662Z" fill="white"/>
</g>
<g opacity="0.6">
<path d="M36.2875 77.6006C36.405 78.3451 36.8097 78.8615 37.2705 78.855L74.8199 78.32C75.2447 78.314 75.5845 77.7286 75.5752 77.0189C75.5662 76.329 75.2298 75.7767 74.8168 75.7735L37.2665 75.4873C36.6036 75.4823 36.1185 76.5296 36.2875 77.6006Z" fill="white"/>
</g>
<g opacity="0.6">
<path d="M36.3229 92.1351C36.5629 92.8795 37.3899 93.396 38.3314 93.3894L115.057 92.8544C115.925 92.8484 116.619 92.2631 116.6 91.5534C116.582 90.8634 115.895 90.3111 115.051 90.3079L38.3232 90.0217C36.9688 90.0167 35.9774 91.0641 36.3229 92.1351Z" fill="white"/>
</g>
<g opacity="0.6">
<path d="M36.2893 106.67C36.4128 107.414 36.838 107.931 37.3222 107.924L76.7795 107.389C77.2258 107.383 77.5829 106.798 77.5732 106.088C77.5637 105.398 77.2103 104.846 76.7763 104.843L37.318 104.556C36.6214 104.551 36.1116 105.599 36.2893 106.67Z" fill="white"/>
</g>
<path d="M33.3801 38.3142H36.4714C37.7311 38.3142 38.6482 38.5587 39.2229 39.0476C39.7975 39.5366 40.0848 40.3145 40.0848 41.3807C40.0848 42.0824 39.9328 42.6694 39.629 43.1418C39.3251 43.6142 38.9107 43.9001 38.3859 43.9996V44.0825C39.0708 44.2538 39.5654 44.5744 39.8694 45.0438C40.1731 45.5136 40.3252 46.1378 40.3252 46.9169C40.3252 48.0165 40.031 48.877 39.4425 49.4985C38.8541 50.1201 38.0487 50.4309 37.0267 50.4309H33.3801V38.3142ZM35.5017 43.1874H36.5377C37.0128 43.1874 37.347 43.0604 37.5405 42.8061C37.7339 42.5522 37.8306 42.1736 37.8306 41.6707C37.8306 41.1681 37.7199 40.8076 37.4991 40.5892C37.2781 40.371 36.9299 40.2618 36.4549 40.2618H35.5018L35.5017 43.1874ZM35.5017 45.0687V48.4584H36.6371C37.1066 48.4584 37.4562 48.3148 37.6855 48.0274C37.9147 47.7402 38.0294 47.2953 38.0294 46.693C38.0294 45.6102 37.5541 45.0687 36.604 45.0687H35.5017Z" fill="#136EAC"/>
<path d="M42.3887 50.4309V38.3142H44.5103V50.4309H42.3887Z" fill="#136EAC"/>
<path d="M47.0712 50.4309V38.3142H49.3255V48.4584H52.45V50.4309H47.0712Z" fill="#136EAC"/>
<path d="M53.8922 50.4309V38.3142H56.1465V48.4584H59.271V50.4309H53.8922Z" fill="#136EAC"/>
<path d="M73.2439 44.3559C73.2439 46.3615 72.8681 47.903 72.1168 48.9805C71.3653 50.0579 70.2906 50.5965 68.8929 50.5965C67.4894 50.5965 66.4119 50.0593 65.6607 48.9846C64.9092 47.9101 64.5336 46.3615 64.5336 44.3393C64.5336 42.3337 64.9092 40.7963 65.6607 39.7272C66.4119 38.6581 67.495 38.1235 68.9095 38.1235C70.3072 38.1235 71.3792 38.661 72.1251 39.7355C72.871 40.8102 73.2439 42.3503 73.2439 44.3559ZM66.8375 44.3559C66.8375 45.7373 67.0115 46.7898 67.3596 47.5135C67.7076 48.2374 68.2186 48.5992 68.8928 48.5992C70.252 48.5992 70.9316 47.1849 70.9316 44.3559C70.9316 41.5271 70.2574 40.1126 68.9094 40.1126C68.2242 40.1126 67.7076 40.4731 67.3596 41.1941C67.0116 41.9151 66.8375 42.9692 66.8375 44.3559Z" fill="#136EAC"/>
<path d="M77.2469 50.4309H75.0092V38.3142H80.4376V40.2618H77.2469V43.6267H80.2222V45.5743H77.2469V50.4309Z" fill="#136EAC"/>
<path d="M91.6677 47.0905C91.6677 48.2233 91.3818 49.0908 90.81 49.6929C90.2381 50.2952 89.4135 50.5963 88.3361 50.5963C87.2806 50.5963 86.3829 50.3891 85.6426 49.9746V47.7452C86.5486 48.3366 87.3801 48.632 88.1372 48.632C88.5681 48.632 88.8926 48.5133 89.111 48.2757C89.3291 48.0382 89.4384 47.715 89.4384 47.306C89.4384 46.9028 89.3085 46.534 89.0489 46.1996C88.789 45.8654 88.361 45.4939 87.7642 45.085C87.2448 44.7259 86.8511 44.382 86.5832 44.0532C86.3151 43.7245 86.1079 43.3557 85.9616 42.9468C85.8151 42.538 85.742 42.0629 85.742 41.5213C85.742 40.4826 86.0306 39.6595 86.608 39.0516C87.1853 38.4439 87.9602 38.1399 88.9328 38.1399C89.861 38.1399 90.7531 38.3997 91.6097 38.9189L90.8638 40.7257C90.5986 40.5711 90.321 40.4329 90.0309 40.3113C89.7408 40.1898 89.43 40.1289 89.0986 40.1289C88.7339 40.1289 88.4534 40.2491 88.2574 40.4894C88.0612 40.7297 87.9631 41.0571 87.9631 41.4715C87.9631 41.8806 88.0804 42.2369 88.3154 42.5407C88.5501 42.8446 88.9604 43.19 89.5461 43.5766C90.3361 44.1071 90.8873 44.6487 91.1995 45.201C91.5115 45.7535 91.6677 46.3834 91.6677 47.0905Z" fill="#136EAC"/>
<path d="M98.8946 50.4306L98.1984 47.3724H95.0408L94.3446 50.4306H92.0903L95.0905 38.2642H98.1487L101.157 50.4306H98.8946ZM97.7757 45.375L97.1293 42.5572C97.0905 42.3861 97.0035 41.9563 96.8682 41.2684C96.7328 40.5805 96.6513 40.1206 96.6237 39.8885C96.5518 40.3638 96.4606 40.8872 96.3502 41.459C96.2396 42.0309 95.9524 43.3362 95.4883 45.375L97.7757 45.375Z" fill="#136EAC"/>
<path d="M102.226 50.4309V38.3142H104.481V48.4584H107.605V50.4309H102.226Z" fill="#136EAC"/>
<path d="M114.508 50.4309H109.047V38.3142H114.508V40.2618H111.301V43.146H114.276V45.1019H111.301V48.4584H114.508V50.4309Z" fill="#136EAC"/>
<path d="M80.6279 2.66665C77.1929 0.276942 74.206 0.324305 72.1034 0.944684C70.1854 1.51064 68.9423 3.36238 69.1247 5.35387L70.0315 15.251L80.8214 16.2086C80.8214 16.2086 87.3646 7.35321 80.6279 2.66665ZM75.8829 10.6512C74.3971 10.6512 73.1924 9.44669 73.1924 7.96083C73.1924 6.4749 74.397 5.27036 75.8829 5.27036C77.3688 5.27036 78.5734 6.4749 78.5734 7.96083C78.5734 9.44669 77.3688 10.6512 75.8829 10.6512Z" fill="url(#paint2_linear_29_123)"/>
<path d="M71.1095 11.0875C70.9764 11.0875 70.8629 10.986 70.8505 10.8507L70.7061 9.27456C70.6929 9.13137 70.7984 9.00477 70.9416 8.99155C71.0876 8.97788 71.2115 9.08388 71.2246 9.22726L71.369 10.8035C71.3822 10.9466 71.2767 11.0732 71.1335 11.0865C71.1254 11.0872 71.1174 11.0875 71.1095 11.0875ZM70.8265 7.99869C70.6934 7.99869 70.5799 7.89723 70.5675 7.76194L70.4578 6.56537C70.2839 4.66828 71.4776 2.90193 73.2961 2.3652C74.5839 1.98506 75.9108 1.93064 77.2396 2.20322C77.3804 2.23192 77.4712 2.36973 77.4423 2.51059C77.4135 2.65119 77.2769 2.74118 77.135 2.71326C75.8903 2.4585 74.6485 2.50903 73.4434 2.86454C71.8628 3.33111 70.8251 4.86764 70.9763 6.51807L71.086 7.71464C71.0992 7.85777 70.9937 7.98444 70.8505 7.99765C70.8424 7.99843 70.8344 7.99869 70.8265 7.99869Z" fill="white"/>
<path d="M55.3054 21.6472V16.6712C55.3054 14.9535 56.7291 13.5778 58.4458 13.6366L92.753 14.812C94.2756 14.8642 95.5085 16.0659 95.5998 17.5867L95.8865 22.3679L55.3054 21.6472Z" fill="url(#paint3_linear_29_123)"/>
<path d="M68.0977 15.5112H66.6223C66.4786 15.5112 66.3619 15.3948 66.3619 15.2509C66.3619 15.107 66.4785 14.9905 66.6223 14.9905H68.0977C68.2415 14.9905 68.3581 15.1069 68.3581 15.2509C68.358 15.3948 68.2415 15.5112 68.0977 15.5112Z" fill="white"/>
<path d="M57.1623 20.0845C57.0185 20.0845 56.9019 19.968 56.9019 19.8241V17.811C56.9019 16.2557 58.1672 14.9905 59.7226 14.9905H65.1468C65.2905 14.9905 65.4072 15.1069 65.4072 15.2509C65.4072 15.3948 65.2906 15.5112 65.1468 15.5112H59.7226C58.4544 15.5112 57.4226 16.543 57.4226 17.811V19.8241C57.4226 19.968 57.306 20.0845 57.1623 20.0845Z" fill="white"/>
<path d="M41.3263 22.9037C41.4091 21.1807 42.8303 19.8261 44.5553 19.8261L104.548 19.8245C106.705 19.8244 108.549 21.3767 108.917 23.5024L108.968 23.7957C109.371 26.1238 107.579 28.2533 105.216 28.2533H43.667C42.2529 28.2533 41.1261 27.0709 41.194 25.6585L41.3263 22.9037Z" fill="url(#paint4_linear_29_123)"/>
<path d="M99.1164 167.739C98.6498 167.739 98.1831 167.519 97.6912 167.067C95.8957 165.417 95.427 162.888 95.2984 160.478C94.4742 161.4 93.6315 162.298 92.7982 163.186L92.3157 162.733C93.3008 161.683 94.2992 160.619 95.2627 159.52C95.183 156.211 95.3359 152.867 95.7168 149.58C95.9506 147.562 96.2877 145.426 97.1628 143.477C97.4422 142.855 97.906 141.963 98.704 141.405C99.538 140.822 100.632 140.759 101.365 141.251C102.188 141.804 102.41 142.85 102.505 143.588C103.061 147.921 101.372 151.891 99.8561 154.458C98.732 156.362 97.3719 158.104 95.9312 159.761C96.0058 162.231 96.3486 164.935 98.1389 166.58C98.5148 166.925 98.8471 167.094 99.1457 167.077C99.6462 167.059 100.053 166.57 100.385 166.095C101.901 163.923 103.08 161.568 103.905 159.071C104.001 158.318 104.212 157.58 104.532 156.891L105.154 157.109C104.98 157.822 104.78 158.525 104.553 159.218C104.469 159.924 104.495 160.643 104.635 161.341C104.709 161.712 105.021 162.933 105.921 163.104C106.59 163.233 107.293 162.721 108.068 161.542L111.297 156.635L110.878 158.438C110.736 159.048 110.498 160.504 111.345 160.853C111.827 161.051 112.339 160.762 112.932 160.428C113.499 160.109 114.142 159.747 114.842 159.84L115.182 159.886L115.124 160.224C115.092 160.41 114.836 162.042 115.676 162.228C116.06 162.312 116.384 162.044 116.873 161.592C117.243 161.251 117.661 160.864 118.19 160.736L118.346 161.379C117.984 161.467 117.663 161.764 117.322 162.079C116.835 162.529 116.283 163.038 115.534 162.874C114.561 162.659 114.318 161.57 114.419 160.503C114.044 160.561 113.659 160.778 113.257 161.005C112.608 161.371 111.872 161.786 111.093 161.465C110.46 161.204 110.113 160.581 110.078 159.691L108.621 161.906C108.276 162.431 107.225 164.026 105.797 163.754C104.916 163.587 104.239 162.733 103.986 161.471C103.954 161.311 103.927 161.15 103.906 160.988C103.126 162.916 102.13 164.751 100.927 166.474C100.527 167.047 99.9655 167.709 99.1695 167.738C99.1519 167.739 99.1341 167.739 99.1164 167.739ZM100.225 141.577C99.8089 141.577 99.3889 141.734 99.0831 141.947C98.4194 142.411 98.0138 143.197 97.7664 143.748C96.9282 145.615 96.602 147.691 96.3742 149.656C96.0249 152.67 95.8692 155.731 95.9104 158.769C97.1506 157.305 98.3121 155.771 99.2863 154.121C100.749 151.643 102.381 147.819 101.848 143.673C101.723 142.702 101.452 142.107 100.996 141.8C100.762 141.643 100.494 141.577 100.225 141.577Z" fill="url(#paint5_linear_29_123)"/>
<path d="M82.6742 146.677C82.6742 146.677 81.2338 142.885 79.5513 143.233C77.8688 143.58 76.0282 144.872 76.0282 144.872L73.3253 148.528C73.3253 148.528 80.9129 151.517 83.5814 149.804C83.5814 149.804 91.3316 151.143 101.119 149.537C99.7019 146.546 98.8574 143.552 98.3616 141.227C93.4045 144.033 88.0655 146.129 82.6742 146.677Z" fill="url(#paint6_linear_29_123)"/>
<path d="M123.727 119.173C123.727 119.173 112.631 133.149 98.3614 141.227C98.8572 143.551 99.7017 146.546 101.118 149.537C108.521 148.322 117.088 145.423 124.351 138.982L123.727 119.173Z" fill="url(#paint7_linear_29_123)"/>
<path d="M40.562 121.022L41.2509 139.524C43.2076 140.197 45.0705 140.721 46.8444 141.112C47.954 137.54 50.3973 133.155 52.3979 129.895C45.0473 127.297 40.562 121.022 40.562 121.022Z" fill="#0A4F7E"/>
<path d="M77.2608 120.707C67.1775 131.594 59.0161 132.234 52.3977 129.895C50.397 133.155 47.9537 137.539 46.8441 141.112C73.7713 147.048 80.1123 122.294 80.1123 122.294L77.2608 120.707Z" fill="url(#paint8_linear_29_123)"/>
<path d="M79.3057 119.551C79.3057 119.551 80.4672 118.303 82.6168 118.695C84.7665 119.087 86.68 119.834 88.0194 118.695C89.3588 117.557 89.8297 119.085 89.8297 119.085L85.8189 122.134L79.3057 119.551Z" fill="url(#paint9_linear_29_123)"/>
<path d="M76.907 121.683C76.907 121.683 77.7029 118.355 80.1013 118.811C82.4997 119.267 87.9445 122.228 89.3478 121.683C90.751 121.137 92.5453 119.832 93.4659 120.293L91.8445 122.309C91.8445 122.309 96.013 119.904 96.7306 121.382L89.7943 125.285C89.7943 125.285 79.6463 124.269 76.907 121.683Z" fill="url(#paint10_linear_29_123)"/>
<path d="M5.65586 182C5.65586 182 2.21537 132.881 27.2967 117.608C27.2967 117.608 34.3088 112.979 43.0465 121.944C51.784 130.909 48.9702 140.222 41.6376 148.951C34.305 157.68 26.8365 173.273 28.6139 182H5.65586Z" fill="#136EAC"/>
<path d="M39.9372 104.229C39.9306 104.814 31.5786 116.677 31.5786 116.677C31.5786 116.677 33.0777 119.63 40.2345 122.027L46.4122 109.325L39.9372 104.229Z" fill="url(#paint11_linear_29_123)"/>
<path d="M36.653 144.958C36.653 144.958 52.4989 158.229 69.6099 152.438C70.6711 152.079 71.8316 152.157 72.8223 152.68L77.7416 155.279C79.8063 156.369 82.3634 155.653 83.5614 153.649C84.2448 152.506 84.8281 151.2 84.9441 149.949L75.3185 146.052L76.0281 144.872C76.0281 144.872 71.3285 144.474 70.0985 147.842C70.0985 147.842 61.147 151.565 46.051 134.961C46.051 134.961 39.2006 140.786 36.653 144.958Z" fill="url(#paint12_linear_29_123)"/>
<path d="M35.7999 144.9C35.7323 144.9 35.6641 144.881 35.6038 144.84C28.9123 140.319 25.7645 133.021 25.7334 132.948C25.6579 132.77 25.7412 132.564 25.9193 132.489C26.0975 132.413 26.3034 132.496 26.379 132.674C26.4093 132.746 29.4818 139.858 35.9965 144.259C36.157 144.368 36.1991 144.586 36.0908 144.746C36.0229 144.846 35.9124 144.9 35.7999 144.9Z" fill="#0A4F7E"/>
<path d="M45.7379 134.815C45.6229 134.815 45.5101 134.759 45.443 134.655C45.4229 134.623 43.3832 131.448 39.4994 124.494C38.3166 122.376 36.7645 121.035 34.8855 120.509C31.7696 119.637 28.7639 121.309 28.7338 121.326C28.5656 121.422 28.3517 121.363 28.2561 121.194C28.1605 121.026 28.2194 120.812 28.3874 120.717C28.52 120.642 31.6676 118.884 35.0681 119.832C37.1364 120.409 38.8332 121.863 40.1117 124.152C43.9827 131.083 46.0123 134.244 46.0324 134.275C46.1374 134.438 46.0904 134.654 45.9277 134.759C45.8689 134.797 45.8029 134.815 45.7379 134.815Z" fill="#0A4F7E"/>
<path d="M46.5131 97.4307C46.5131 97.4307 49.4849 104.257 49.6844 107.841C49.884 111.424 50.6561 113.749 46.5131 114.47C42.37 115.192 38.8799 113.128 36.9891 109.559C36.9891 109.559 34.0266 104.059 34.6911 101.807C35.3557 99.5543 46.5131 97.4307 46.5131 97.4307Z" fill="url(#paint13_linear_29_123)"/>
<path d="M38.4048 106.992L38.6406 106.888C38.9409 106.756 39.0693 106.399 38.9184 106.107C38.3342 104.979 37.1953 102.392 38.6666 101.788C40.5628 101.011 48.0737 99.479 49.6942 96.8139C51.2517 94.2525 49.8718 90.9461 47.7978 90.0057C47.659 89.9428 47.4954 89.9927 47.4242 90.1275L47.2514 90.4545C47.1331 90.6783 46.8025 90.6444 46.732 90.4012C46.6645 90.1677 46.3539 90.1224 46.2251 90.3286C45.727 91.1259 44.3822 92.4186 40.7858 93.0823C35.6747 94.0256 32.2955 96.094 32.2114 99.6258C32.2061 99.8502 31.9674 99.975 31.7756 99.8582C31.3982 99.6282 30.7943 99.5203 29.9872 100.199C28.5836 101.379 29.1579 104.441 32.2351 106.959C32.3812 107.079 32.38 107.307 32.2217 107.41C31.6639 107.773 30.8323 108.637 32.987 109.789C35.2158 110.981 36.8802 110.883 37.521 110.777C37.6805 110.751 37.7832 110.597 37.7484 110.439L37.0644 107.335C37.0257 107.159 37.1594 106.992 37.3394 106.992L38.4048 106.992Z" fill="url(#paint14_linear_29_123)"/>
<path d="M38.5337 107.648C38.5337 107.648 37.4 103.287 35.4448 104.509C33.4897 105.732 36.4594 109.396 38.0312 109.559L38.5337 107.648Z" fill="url(#paint15_linear_29_123)"/>
<path d="M72.8221 152.681C72.8221 152.681 76.8489 156.62 77.626 156.046C77.9025 155.842 78.6004 155.101 79.2769 154.276C79.7543 153.694 79.8039 152.871 79.3944 152.239L78.4447 150.774C77.5397 149.377 75.602 149.084 74.3468 150.177C73.7137 150.728 73.1391 151.526 72.8221 152.681Z" fill="url(#paint16_linear_29_123)"/>
<path d="M136.743 182C136.743 182 136.249 163.58 125.96 145.306C122.741 139.59 121.597 132.937 122.6 126.454L123.727 119.174C123.727 119.174 137.848 114.395 153.501 118.972C153.501 118.972 175.204 136.183 160.699 182H136.743Z" fill="url(#paint17_linear_29_123)"/>
<path d="M126.131 109.881L129.793 118.678C130.024 119.233 130.524 119.629 131.117 119.731C133.228 120.093 138.334 120.659 141.687 118.454C142.086 118.191 142.188 117.648 141.915 117.256L135.15 107.544L126.131 109.881Z" fill="url(#paint18_linear_29_123)"/>
<path d="M135.162 151.221C134.658 151.354 134.407 151.921 134.648 152.383L145.241 172.695C145.42 173.038 145.816 173.207 146.188 173.1L180.838 163.096C181.269 162.971 181.518 162.52 181.393 162.089L175.424 141.426C175.302 141.002 174.863 140.753 174.436 140.866L135.162 151.221Z" fill="url(#paint19_linear_29_123)"/>
<path d="M137.397 148.834C136.901 148.952 136.619 149.477 136.796 149.956L145.275 172.989C145.429 173.408 145.881 173.637 146.31 173.513L180.855 163.539C181.285 163.415 181.545 162.979 181.451 162.542L176.663 140.373C176.563 139.907 176.098 139.614 175.634 139.725L137.397 148.834Z" fill="url(#paint20_linear_29_123)"/>
<path d="M140.406 146.509C139.8 146.601 139.401 147.189 139.539 147.786L145.298 172.652C145.434 173.239 146.035 173.592 146.615 173.425L180.637 163.602C181.184 163.444 181.506 162.88 181.364 162.329L176.132 142.032C175.997 141.509 175.488 141.173 174.955 141.255L140.406 146.509Z" fill="#136EAC"/>
<path d="M167.947 155.991C170.587 136.044 155.215 120.707 155.215 120.707L146.07 131.369C153.013 140.024 156.314 147.955 157.822 154.184C159.821 153.601 164.636 152.681 167.947 155.991Z" fill="url(#paint21_linear_29_123)"/>
<path d="M157.821 154.417C157.716 154.417 157.62 154.346 157.594 154.239C155.724 146.512 151.785 138.867 145.887 131.515C145.806 131.415 145.822 131.267 145.923 131.187C146.024 131.106 146.171 131.122 146.252 131.223C152.193 138.629 156.162 146.335 158.048 154.129C158.079 154.254 158.002 154.381 157.876 154.411C157.858 154.415 157.839 154.417 157.821 154.417Z" fill="url(#paint22_linear_29_123)"/>
<path d="M157.821 154.184C159.223 159.973 159.076 164.293 158.862 166.355C158.782 167.133 158.157 167.74 157.377 167.794C156.492 167.856 155.286 167.938 154.209 168C153.025 168.068 151.71 167.32 150.831 166.694C150.383 166.375 149.802 166.872 150.053 167.362C150.709 168.646 152.374 169.788 153.521 170.46C153.939 170.705 153.86 171.329 153.395 171.46L148.488 172.851C156.551 180.448 161.875 171.948 161.875 171.948C165.434 166.449 167.274 161.071 167.946 155.991C164.635 152.682 159.821 153.602 157.821 154.184Z" fill="url(#paint23_linear_29_123)"/>
<path d="M129.918 96.4227C129.764 96.5675 123.428 109.01 123.428 109.01L130.61 112.477L138.367 101.576C138.367 101.576 132.492 93.9993 129.918 96.4227Z" fill="url(#paint24_linear_29_123)"/>
<path d="M135.103 102.884L131.522 108.855C131.467 108.945 131.403 109.027 131.325 109.099C130.899 109.496 129.44 110.65 128.312 109.079C127.351 107.739 126.449 106.522 125.483 106.019C124.918 105.726 124.224 105.96 123.937 106.528C123.347 107.698 122.204 110.082 121.486 112.343C121.306 112.909 121.599 113.518 122.15 113.741C123.604 114.33 126.478 115.396 129.028 115.748C129.447 115.806 129.862 115.629 130.111 115.287C131.208 113.784 134.301 109.583 135.357 108.532C136.337 107.555 138.147 107.923 138.962 108.158C139.272 108.247 139.602 108.204 139.878 108.038C140.705 107.539 142.149 106.298 140.828 104.197C140.5 103.675 140.667 102.979 141.182 102.64C142.106 102.032 143.109 100.891 142.154 99.0443C141.187 97.1744 139.46 97.0065 138.285 97.1502C137.764 97.2139 137.236 96.941 137.036 96.4563C136.948 96.2408 136.772 96.057 136.445 95.9907C135.829 95.8657 135.425 95.3021 135.545 94.685C135.753 93.6269 135.597 92.2523 133.907 91.3233C130.809 89.6197 128.094 92.3956 127.404 94.739C126.714 97.0823 130.179 98.7383 132.358 99.0147C133.959 99.2177 134.836 100.965 135.19 101.878C135.318 102.209 135.286 102.579 135.103 102.884Z" fill="url(#paint25_linear_29_123)"/>
<path d="M134.011 110.724C134.011 110.724 135.389 106.693 137.153 106.841C138.916 106.989 140.304 108.746 138.119 110.721C135.4 113.178 134.011 110.724 134.011 110.724Z" fill="url(#paint26_linear_29_123)"/>
<path d="M85.6047 120.801C94.7671 120.801 102.195 113.373 102.195 104.211C102.195 95.0485 94.7671 87.6208 85.6047 87.6208C76.4423 87.6208 69.0146 95.0485 69.0146 104.211C69.0146 113.373 76.4423 120.801 85.6047 120.801Z" fill="url(#paint27_linear_29_123)"/>
<path d="M85.6048 120.249C94.4626 120.249 101.643 113.069 101.643 104.211C101.643 95.353 94.4626 88.1724 85.6048 88.1724C76.7471 88.1724 69.5664 95.353 69.5664 104.211C69.5664 113.069 76.7471 120.249 85.6048 120.249Z" fill="url(#paint28_linear_29_123)"/>
<path d="M72.6195 97.379C72.573 97.3773 72.526 97.3651 72.4823 97.3409C72.3332 97.2587 72.2791 97.0712 72.3613 96.9225C75.1345 91.8928 80.4201 88.8983 86.1555 89.1074C87.0707 89.1408 87.9843 89.2566 88.8708 89.4521C89.0371 89.4886 89.1422 89.6529 89.1055 89.8193C89.0689 89.9854 88.9047 90.0923 88.7384 90.0537C87.8879 89.8665 87.0113 89.7553 86.133 89.7233C80.6314 89.5227 75.5611 92.3953 72.9009 97.2198C72.8428 97.3251 72.7321 97.3831 72.6195 97.379Z" fill="white"/>
<path opacity="0.78" d="M95.538 114.171C100.839 108.87 100.839 100.275 95.538 94.9742C90.2368 89.6731 81.642 89.6731 76.3409 94.9742C71.0397 100.275 71.0397 108.87 76.3409 114.171C81.642 119.472 90.2368 119.472 95.538 114.171Z" fill="white"/>
<path d="M84.2422 114.609L84.2961 113.133C82.7598 113.016 81.2513 112.597 80.1876 112.084C79.8078 111.901 79.6269 111.461 79.7526 111.059L80.1776 109.698C80.3336 109.198 80.8915 108.957 81.3663 109.177C82.4221 109.666 83.7329 110.07 85.1604 110.122C86.6423 110.176 87.7657 109.714 87.8033 108.684C87.8372 107.755 87.0034 107.171 84.9639 106.543C82.0547 105.632 79.9915 104.274 80.0859 101.687C80.1711 99.3514 81.9441 97.6305 84.9252 97.2615L84.979 95.7854C84.9963 95.3105 85.3955 94.9395 85.8703 94.9569L86.7375 94.9885C87.2125 95.0058 87.5834 95.4049 87.5661 95.8798L87.5178 97.205C88.9393 97.3139 89.9668 97.5951 90.7786 97.914C91.1946 98.0774 91.4082 98.5397 91.2757 98.9665L90.8845 100.225C90.7337 100.711 90.1999 100.96 89.7313 100.763C88.9846 100.449 87.9249 100.112 86.5333 100.061C84.7751 99.9972 84.2464 100.707 84.2225 101.36C84.1933 102.164 85.228 102.755 87.4878 103.542C90.7174 104.64 92.0242 106.046 91.9353 108.482C91.8538 110.718 90.1229 112.667 86.8896 113.052L86.8294 114.703C86.8121 115.178 86.413 115.549 85.9381 115.532L85.0709 115.5C84.5959 115.483 84.2249 115.084 84.2422 114.609Z" fill="url(#paint29_linear_29_123)"/>
<defs>
<linearGradient id="paint0_linear_29_123" x1="78.2916" y1="-21.0442" x2="77.259" y2="154.144" gradientUnits="userSpaceOnUse">
<stop stop-color="#2B3582"/>
<stop offset="1" stop-color="#150E42"/>
</linearGradient>
<linearGradient id="paint1_linear_29_123" x1="147.145" y1="-4.95539" x2="39.0722" y2="151.647" gradientUnits="userSpaceOnUse">
<stop stop-color="#53D8FF"/>
<stop offset="1" stop-color="#3840F7"/>
</linearGradient>
<linearGradient id="paint2_linear_29_123" x1="91.2379" y1="-11.5283" x2="47.4965" y2="46.0125" gradientUnits="userSpaceOnUse">
<stop stop-color="#2B3582"/>
<stop offset="1" stop-color="#150E42"/>
</linearGradient>
<linearGradient id="paint3_linear_29_123" x1="96.0362" y1="-7.88084" x2="52.2947" y2="49.66" gradientUnits="userSpaceOnUse">
<stop stop-color="#2B3582"/>
<stop offset="1" stop-color="#150E42"/>
</linearGradient>
<linearGradient id="paint4_linear_29_123" x1="79.2413" y1="-11.1415" x2="73.9041" y2="34.669" gradientUnits="userSpaceOnUse">
<stop stop-color="#53D8FF"/>
<stop offset="1" stop-color="#3840F7"/>
</linearGradient>
<linearGradient id="paint5_linear_29_123" x1="92.3157" y1="154.33" x2="118.346" y2="154.33" gradientUnits="userSpaceOnUse">
<stop stop-color="#2B3582"/>
<stop offset="1" stop-color="#150E42"/>
</linearGradient>
<linearGradient id="paint6_linear_29_123" x1="73.3252" y1="145.78" x2="101.119" y2="145.78" gradientUnits="userSpaceOnUse">
<stop stop-color="#F9B776"/>
<stop offset="1" stop-color="#F47960"/>
</linearGradient>
<linearGradient id="paint7_linear_29_123" x1="119.675" y1="118.303" x2="94.0848" y2="185.368" gradientUnits="userSpaceOnUse">
<stop stop-color="#FDF53F"/>
<stop offset="1" stop-color="#D93C65"/>
</linearGradient>
<linearGradient id="paint8_linear_29_123" x1="90.5728" y1="119.152" x2="46.9702" y2="140.842" gradientUnits="userSpaceOnUse">
<stop stop-color="#F9B776"/>
<stop offset="1" stop-color="#F47960"/>
</linearGradient>
<linearGradient id="paint9_linear_29_123" x1="89.9344" y1="113.713" x2="83.5036" y2="120.429" gradientUnits="userSpaceOnUse">
<stop stop-color="#F9B776"/>
<stop offset="1" stop-color="#F47960"/>
</linearGradient>
<linearGradient id="paint10_linear_29_123" x1="90.7802" y1="118.895" x2="47.1778" y2="140.585" gradientUnits="userSpaceOnUse">
<stop stop-color="#F9B776"/>
<stop offset="1" stop-color="#F47960"/>
</linearGradient>
<linearGradient id="paint11_linear_29_123" x1="34.2626" y1="125.925" x2="40.0565" y2="110.104" gradientUnits="userSpaceOnUse">
<stop stop-color="#F9B776"/>
<stop offset="1" stop-color="#F47960"/>
</linearGradient>
<linearGradient id="paint12_linear_29_123" x1="62.245" y1="146.402" x2="42.0408" y2="161.258" gradientUnits="userSpaceOnUse">
<stop stop-color="#F9B776"/>
<stop offset="1" stop-color="#F47960"/>
</linearGradient>
<linearGradient id="paint13_linear_29_123" x1="47.136" y1="103.44" x2="30.1472" y2="116.439" gradientUnits="userSpaceOnUse">
<stop stop-color="#F9B776"/>
<stop offset="1" stop-color="#F47960"/>
</linearGradient>
<linearGradient id="paint14_linear_29_123" x1="48.8249" y1="60.6451" x2="43.1997" y2="84.1386" gradientUnits="userSpaceOnUse">
<stop stop-color="#2B3582"/>
<stop offset="1" stop-color="#150E42"/>
</linearGradient>
<linearGradient id="paint15_linear_29_123" x1="45.0289" y1="100.686" x2="28.0401" y2="113.685" gradientUnits="userSpaceOnUse">
<stop stop-color="#F9B776"/>
<stop offset="1" stop-color="#F47960"/>
</linearGradient>
<linearGradient id="paint16_linear_29_123" x1="72.8221" y1="152.808" x2="79.6712" y2="152.808" gradientUnits="userSpaceOnUse">
<stop stop-color="#F9B776"/>
<stop offset="1" stop-color="#F47960"/>
</linearGradient>
<linearGradient id="paint17_linear_29_123" x1="123.617" y1="139.037" x2="185.239" y2="171.843" gradientUnits="userSpaceOnUse">
<stop stop-color="#FDF53F"/>
<stop offset="1" stop-color="#D93C65"/>
</linearGradient>
<linearGradient id="paint18_linear_29_123" x1="135.512" y1="117.981" x2="131.056" y2="104.611" gradientUnits="userSpaceOnUse">
<stop stop-color="#F9B776"/>
<stop offset="1" stop-color="#F47960"/>
</linearGradient>
<linearGradient id="paint19_linear_29_123" x1="134.556" y1="156.985" x2="181.425" y2="156.985" gradientUnits="userSpaceOnUse">
<stop stop-color="#53D8FF"/>
<stop offset="1" stop-color="#3840F7"/>
</linearGradient>
<linearGradient id="paint20_linear_29_123" x1="177.992" y1="131.845" x2="87.984" y2="247.884" gradientUnits="userSpaceOnUse">
<stop stop-color="#53D8FF"/>
<stop offset="1" stop-color="#3840F7"/>
</linearGradient>
<linearGradient id="paint21_linear_29_123" x1="131.586" y1="124.172" x2="193.536" y2="157.152" gradientUnits="userSpaceOnUse">
<stop stop-color="#FDF53F"/>
<stop offset="1" stop-color="#D93C65"/>
</linearGradient>
<linearGradient id="paint22_linear_29_123" x1="214.961" y1="75.5823" x2="135.102" y2="160.736" gradientUnits="userSpaceOnUse">
<stop stop-color="#FDF53F"/>
<stop offset="1" stop-color="#D93C65"/>
</linearGradient>
<linearGradient id="paint23_linear_29_123" x1="162.572" y1="156.927" x2="148.087" y2="184.782" gradientUnits="userSpaceOnUse">
<stop stop-color="#F9B776"/>
<stop offset="1" stop-color="#F47960"/>
</linearGradient>
<linearGradient id="paint24_linear_29_123" x1="132.005" y1="98.7752" x2="127.555" y2="124.964" gradientUnits="userSpaceOnUse">
<stop stop-color="#F9B776"/>
<stop offset="1" stop-color="#F47960"/>
</linearGradient>
<linearGradient id="paint25_linear_29_123" x1="120.235" y1="88.9237" x2="135.458" y2="111.428" gradientUnits="userSpaceOnUse">
<stop stop-color="#CB236D"/>
<stop offset="1" stop-color="#4C246D"/>
</linearGradient>
<linearGradient id="paint26_linear_29_123" x1="135.866" y1="127.361" x2="136.658" y2="108.97" gradientUnits="userSpaceOnUse">
<stop stop-color="#F9B776"/>
<stop offset="1" stop-color="#F47960"/>
</linearGradient>
<linearGradient id="paint27_linear_29_123" x1="61.9586" y1="129.718" x2="85.1365" y2="104.716" gradientUnits="userSpaceOnUse">
<stop stop-color="#FDF53F"/>
<stop offset="1" stop-color="#D93C65"/>
</linearGradient>
<linearGradient id="paint28_linear_29_123" x1="98.3882" y1="86.3475" x2="29.012" y2="183.293" gradientUnits="userSpaceOnUse">
<stop stop-color="#FDF53F"/>
<stop offset="1" stop-color="#D93C65"/>
</linearGradient>
<linearGradient id="paint29_linear_29_123" x1="99.3985" y1="93.1138" x2="50.9055" y2="136.706" gradientUnits="userSpaceOnUse">
<stop stop-color="#FDF53F"/>
<stop offset="1" stop-color="#D93C65"/>
</linearGradient>
</defs>
</svg>
