<svg width="222" height="174" viewBox="0 0 222 174" fill="none" xmlns="http://www.w3.org/2000/svg">
<path d="M106.108 167.573C152.382 167.573 189.894 130.06 189.894 83.7863C189.894 37.5124 152.382 0 106.108 0C59.8339 0 22.3215 37.5124 22.3215 83.7863C22.3215 130.06 59.8339 167.573 106.108 167.573Z" fill="#3B455A"/>
<path d="M143.22 156.637H64.6705V43.6152H151.85V149.276C151.85 153.341 147.986 156.637 143.22 156.637Z" fill="#F7F7F7"/>
<path d="M151.684 43.6152H64.65V48.8625H151.684V43.6152Z" fill="#587BC9"/>
<path d="M129.866 105.773C131.04 105.773 131.04 104.446 129.866 104.446C115.304 104.446 100.742 104.446 86.1798 104.446C85.006 104.446 85.006 105.773 86.1798 105.773H129.866Z" fill="#9EA6AD"/>
<path d="M106.27 52.5022C99.2701 52.5022 93.005 55.6022 88.7579 60.5005L106.27 75.6748L123.782 60.5005C119.535 55.6022 113.27 52.5022 106.27 52.5022Z" fill="#D7E8F4"/>
<path d="M130.875 72.2791L107.94 75.5767V98.7493C120.748 98.7493 131.112 88.385 131.112 75.5767C131.112 74.4565 131.028 73.3564 130.875 72.2791Z" fill="#305399"/>
<path d="M88.7827 60.5769C80.5275 70.37 81.772 84.9746 91.5651 93.2297C92.4216 93.9517 93.3167 94.5966 94.2394 95.1737L106.5 75.512L88.7827 60.5769Z" fill="#7DB5DB"/>
<path d="M106.469 98.7159C102.126 98.7169 97.7694 97.5048 93.9415 95.0358L106.471 75.5439L106.469 98.7159Z" fill="#587BC9"/>
<path d="M132.054 71.0026C131.412 66.4931 129.475 62.4066 126.63 59.126L109.118 74.3002L132.054 71.0026Z" fill="#3B455A"/>
<path d="M83.4324 131.055H74.9197V151.56H83.4324V131.055Z" fill="#587BC9"/>
<path d="M83.4324 123.116H74.9197V132.751H83.4324V123.116Z" fill="#D7E8F4"/>
<path d="M139.474 131.98H130.961V152.484H139.474V131.98Z" fill="#587BC9"/>
<path d="M139.53 114.675H130.961V133.676H139.53V114.675Z" fill="#D7E8F4"/>
<path d="M120.794 130.362H112.281V152.022H120.794V130.362Z" fill="#587BC9"/>
<path d="M120.794 128.435H112.281V142.811H120.794V128.435Z" fill="#D7E8F4"/>
<path d="M102.113 122.817H93.6V151.907H102.113V122.817Z" fill="#587BC9"/>
<path d="M102.113 111.553H93.6001V134.82H102.113V111.553Z" fill="#D7E8F4"/>
<path d="M67.9754 47.7227C67.358 47.7227 66.856 47.2205 66.856 46.6033C66.856 45.9861 67.3582 45.4839 67.9754 45.4839C68.5927 45.4839 69.0948 45.9861 69.0948 46.6033C69.0948 47.2205 68.5927 47.7227 67.9754 47.7227ZM67.9754 45.6703C67.461 45.6703 67.0424 46.0888 67.0424 46.6033C67.0424 47.1178 67.4609 47.5362 67.9754 47.5362C68.4897 47.5362 68.9083 47.1178 68.9083 46.6033C68.9083 46.0888 68.4898 45.6703 67.9754 45.6703Z" fill="white"/>
<path d="M71.4268 47.7227C70.8094 47.7227 70.3074 47.2205 70.3074 46.6033C70.3074 45.9861 70.8096 45.4839 71.4268 45.4839C72.044 45.4839 72.5462 45.9861 72.5462 46.6033C72.5462 47.2205 72.0441 47.7227 71.4268 47.7227ZM71.4268 45.6703C70.9125 45.6703 70.4938 46.0888 70.4938 46.6033C70.4938 47.1178 70.9123 47.5362 71.4268 47.5362C71.9412 47.5362 72.3597 47.1178 72.3597 46.6033C72.3597 46.0888 71.9412 45.6703 71.4268 45.6703Z" fill="white"/>
<path d="M74.8787 47.7227C74.2613 47.7227 73.7593 47.2205 73.7593 46.6033C73.7593 45.9861 74.2615 45.4839 74.8787 45.4839C75.4959 45.4839 75.9981 45.9861 75.9981 46.6033C75.9981 47.2205 75.4959 47.7227 74.8787 47.7227ZM74.8787 45.6703C74.3644 45.6703 73.9457 46.0888 73.9457 46.6033C73.9457 47.1178 74.3642 47.5362 74.8787 47.5362C75.393 47.5362 75.8116 47.1178 75.8116 46.6033C75.8115 46.0888 75.393 45.6703 74.8787 45.6703Z" fill="white"/>
<path opacity="0.07" d="M67.0176 159.929H11.4474V74.1055H72.1778V154.768C72.1778 157.618 69.8676 159.929 67.0176 159.929Z" fill="#2E4661"/>
<path d="M62.4662 157.529H4.54724V67.6125H69.9852V150.009C69.9852 154.162 66.6188 157.529 62.4662 157.529Z" fill="#7DB5DB"/>
<path d="M64.4659 74.7915H11.4924V108.289H64.4659V74.7915Z" fill="white"/>
<path d="M45.0494 86.4098C45.269 86.8528 45.6494 87.2317 46.3694 87.5005C47.7108 88.0013 49.5139 87.6399 50.2872 86.5168C51.5798 84.6392 51.2166 81.9523 52.6073 80.0016C53.1717 79.2101 54.0328 78.5679 55.0474 78.2785C56.062 77.9892 57.2264 78.074 58.1293 78.5713C59.6002 79.3816 60.1091 81.0557 60.1234 82.575C60.1508 85.4932 59.743 88.5097 59.2174 91.3893C58.9631 92.7826 58.5714 94.2141 57.5615 95.3151C56.1918 96.8083 53.9365 97.4301 51.7796 97.7625C46.3227 98.6036 40.7254 98.0893 35.2158 97.5729C30.784 97.1576 26.3522 96.7422 21.9204 96.3269C20.6712 96.2098 16.9927 96.3988 16.2447 95.5332C15.5144 94.688 16.0883 91.8235 16.5155 90.9395C17.4667 88.9705 20.0683 87.8594 22.5102 87.9843C28.0182 88.2663 25.8409 82.5143 27.6038 79.7831C28.5403 78.3322 30.6028 77.2894 32.3792 77.894C34.0733 78.4706 34.7808 80.1712 35.6158 81.5824C36.0492 82.3151 36.6651 83.0746 37.5915 83.2331C39.1668 83.5026 40.481 81.9013 42.0847 81.9629C43.0342 81.9992 43.8422 82.6402 44.2522 83.3894C44.8098 84.4081 44.6152 85.5339 45.0494 86.4098Z" fill="#D7E8F4"/>
<path d="M61.0039 106.472C61.0017 106.472 61.0126 104.061 61.013 103.928C61.0259 100.331 61.0255 96.7325 61.0299 93.1346C61.0341 89.6968 61.3175 86.26 61.2618 82.8309C61.2369 81.2445 60.5517 80.4156 58.8809 80.841C57.236 81.2598 55.7315 82.236 54.6963 83.5831C53.995 84.4956 53.4121 85.638 52.3217 86.0055C50.3727 86.6622 48.778 84.4671 47.0277 83.3871C45.1432 82.2241 42.5199 82.42 40.8289 83.8498C38.7854 85.5777 38.3167 88.5656 36.5873 90.6079C34.6838 92.8558 31.2263 93.6168 28.5549 92.3758C27.4575 91.866 26.5143 91.0715 25.4326 90.5293C21.1427 88.3786 15.1782 91.4732 14.4663 96.2189V106.039C14.4663 106.039 61.0904 106.559 61.0039 106.472Z" fill="#EAC5B0"/>
<path d="M16.3397 113.397H12.358V117.379H16.3397V113.397Z" fill="#305399"/>
<path d="M16.3397 119.283H12.358V123.265H16.3397V119.283Z" fill="#587BC9"/>
<path d="M31.2276 114.609H19.6288V115.82H31.2276V114.609Z" fill="#F7F7F7"/>
<path d="M31.0547 121.014H19.4559V122.226H31.0547V121.014Z" fill="#F7F7F7"/>
<path d="M63.4271 130.054H12.8771V131.363H63.4271V130.054Z" fill="#F7F7F7"/>
<path d="M35.3822 133.857H12.8771V151.796H35.3822V133.857Z" fill="#3B455A"/>
<path d="M63.427 134.03H38.8446V141.842H63.427V134.03Z" fill="#587BC9"/>
<path d="M63.1674 143.897H38.585V151.709H63.1674V143.897Z" fill="#305399"/>
<path d="M41.6467 30.4539H0.288542C0.129167 30.4539 0 30.5947 0 30.7682V52.6779C0 58.0795 4.01867 62.4583 8.97628 62.4583H26.1244L33.136 72.2955C33.3233 72.5585 33.7377 72.4294 33.7425 72.1064L33.8864 62.4583H41.6465C41.8059 62.4583 41.9351 62.3175 41.9351 62.144V30.7682C41.9352 30.5945 41.8061 30.4539 41.6467 30.4539Z" fill="#305399"/>
<path d="M31.1782 35.6895H5.41608V36.7629H31.1782V35.6895Z" fill="#D7E8F4"/>
<path d="M36.1427 43.8743H5.41608V44.9477H36.1427V43.8743Z" fill="#D7E8F4"/>
<path d="M36.1427 52.0593H5.41608V53.1328H36.1427V52.0593Z" fill="#D7E8F4"/>
<path d="M68.5552 40.7264H37.8794V18.9817H66.6045L72.7564 25.4791V36.2362C72.7562 38.7162 70.8753 40.7264 68.5552 40.7264Z" fill="#587BC9"/>
<path d="M72.7318 25.531L66.5557 25.6863V18.9817L72.7318 25.531Z" fill="#EAC5B0"/>
<path d="M65.8614 24.6248H46.2916V25.5566H65.8614V24.6248Z" fill="#7DB5DB"/>
<path d="M65.8613 29.1292H43.1914V30.061H65.8613V29.1292Z" fill="#7DB5DB"/>
<path d="M65.8613 33.6333H43.1914V34.5652H65.8613V33.6333Z" fill="#7DB5DB"/>
<path d="M130.343 84.2502C130.227 84.2502 130.126 84.1646 130.109 84.0464C130.065 83.7278 130.037 83.4039 130.024 83.0834C130.019 82.9532 130.12 82.8433 130.25 82.8383C130.381 82.8334 130.49 82.9346 130.495 83.0647C130.508 83.3699 130.535 83.6784 130.577 83.9819C130.595 84.1111 130.504 84.2302 130.375 84.248C130.364 84.2494 130.354 84.2502 130.343 84.2502Z" fill="#EAC5B0"/>
<path d="M130.366 81.4338C130.354 81.4338 130.342 81.4328 130.33 81.4311C130.202 81.4116 130.113 81.2912 130.133 81.1624C130.227 80.5428 130.38 79.9154 130.588 79.298C130.629 79.1745 130.763 79.108 130.886 79.1497C131.01 79.1912 131.076 79.3251 131.035 79.4486C130.836 80.0402 130.689 80.6407 130.599 81.2334C130.581 81.3501 130.481 81.4338 130.366 81.4338ZM131.546 77.8805C131.51 77.8805 131.473 77.872 131.439 77.8542C131.323 77.7944 131.277 77.6522 131.337 77.5363C131.621 76.9862 131.952 76.4357 132.323 75.9003C132.397 75.7932 132.544 75.7665 132.651 75.8407C132.759 75.9148 132.785 76.0619 132.711 76.1691C132.352 76.6879 132.031 77.2207 131.757 77.7527C131.715 77.8338 131.632 77.8805 131.546 77.8805ZM133.674 74.788C133.619 74.788 133.564 74.7688 133.519 74.73C133.421 74.6444 133.411 74.4952 133.496 74.3971C133.904 73.929 134.349 73.4679 134.818 73.0264C134.913 72.937 135.062 72.9414 135.151 73.0365C135.241 73.1313 135.236 73.2807 135.141 73.37C134.684 73.8009 134.25 74.2509 133.852 74.7073C133.805 74.7606 133.74 74.788 133.674 74.788ZM136.406 72.208C136.336 72.208 136.267 72.177 136.22 72.1177C136.14 72.0153 136.158 71.8667 136.26 71.7863C136.755 71.3979 137.274 71.0247 137.805 70.6772C137.914 70.6057 138.06 70.6363 138.131 70.7451C138.203 70.8542 138.172 71.0003 138.063 71.0719C137.544 71.412 137.036 71.7774 136.552 72.1575C136.509 72.1915 136.457 72.208 136.406 72.208ZM139.55 70.1449C139.466 70.1449 139.386 70.1007 139.343 70.0225C139.28 69.9083 139.322 69.7648 139.436 69.702C139.984 69.4007 140.552 69.1105 141.124 68.8396C141.241 68.7837 141.382 68.8339 141.438 68.9516C141.494 69.0694 141.444 69.2101 141.326 69.2659C140.763 69.5331 140.203 69.8189 139.663 70.1157C139.627 70.1355 139.588 70.1449 139.55 70.1449ZM142.947 68.532C142.854 68.532 142.765 68.4763 142.728 68.3847C142.679 68.2639 142.737 68.1264 142.858 68.0773C143.435 67.843 144.032 67.6196 144.632 67.4134C144.755 67.3709 144.889 67.4365 144.932 67.5598C144.974 67.683 144.909 67.8174 144.785 67.8597C144.193 68.0633 143.605 68.2837 143.036 68.5147C143.007 68.5263 142.976 68.532 142.947 68.532ZM146.502 67.3072C146.4 67.3072 146.305 67.2398 146.276 67.1363C146.239 67.0111 146.312 66.8803 146.437 66.8443C147.034 66.6728 147.649 66.5119 148.268 66.366C148.395 66.3361 148.522 66.4146 148.552 66.5414C148.582 66.6683 148.503 66.7954 148.376 66.8254C147.765 66.9697 147.157 67.1286 146.568 67.298C146.546 67.3042 146.524 67.3072 146.502 67.3072ZM176.592 66.6385L176.401 66.6379C176.27 66.6369 176.165 66.5304 176.166 66.4002C176.167 66.2699 176.269 66.1634 176.404 66.1659L176.592 66.1665C177.176 66.1665 177.738 66.1459 178.264 66.1052C178.393 66.0956 178.507 66.1922 178.517 66.3223C178.527 66.4522 178.43 66.5658 178.3 66.5759C177.763 66.6174 177.188 66.6385 176.592 66.6385ZM174.523 66.566C174.517 66.566 174.512 66.5658 174.507 66.5655C173.945 66.529 173.33 66.4773 172.624 66.4077C172.495 66.395 172.4 66.2793 172.413 66.1497C172.426 66.0201 172.541 65.9247 172.671 65.9381C173.371 66.0073 173.981 66.0584 174.538 66.0946C174.668 66.1031 174.766 66.2155 174.758 66.3454C174.75 66.4702 174.646 66.566 174.523 66.566ZM150.161 66.4411C150.05 66.4411 149.951 66.3622 149.93 66.249C149.906 66.1209 149.99 65.9974 150.118 65.9732C150.726 65.858 151.353 65.7528 151.982 65.6604C152.112 65.6417 152.231 65.7307 152.25 65.8596C152.269 65.9886 152.18 66.1085 152.051 66.1274C151.428 66.2188 150.807 66.3229 150.206 66.4368C150.191 66.4397 150.176 66.4411 150.161 66.4411ZM180.146 66.3297C180.035 66.3297 179.936 66.2513 179.914 66.1384C179.89 66.0105 179.973 65.8866 180.101 65.8619C180.723 65.7417 181.323 65.5822 181.886 65.3877C182.009 65.3451 182.143 65.4106 182.186 65.5336C182.228 65.6568 182.163 65.7911 182.04 65.8338C181.456 66.0355 180.834 66.2008 180.191 66.3253C180.176 66.3281 180.161 66.3297 180.146 66.3297ZM170.777 66.2103C170.768 66.2103 170.76 66.2098 170.751 66.2089L170.191 66.1478C169.756 66.1008 169.32 66.0559 168.883 66.0133C168.753 66.0007 168.658 65.8852 168.671 65.7556C168.684 65.6259 168.798 65.5306 168.929 65.5435C169.367 65.5861 169.805 65.6313 170.242 65.6785L170.803 65.7397C170.932 65.7539 171.026 65.8704 171.012 65.9999C170.998 66.1207 170.896 66.2103 170.777 66.2103ZM153.882 65.8925C153.763 65.8925 153.661 65.8028 153.648 65.6818C153.634 65.5522 153.727 65.4357 153.857 65.4217C154.471 65.3553 155.104 65.2982 155.738 65.2518C155.869 65.2424 155.982 65.3401 155.991 65.47C156 65.6 155.903 65.7131 155.773 65.7225C155.143 65.7685 154.516 65.8251 153.908 65.8909C153.899 65.892 153.89 65.8925 153.882 65.8925ZM167.032 65.8481C167.026 65.8481 167.019 65.8478 167.013 65.8473C166.381 65.7968 165.751 65.7524 165.141 65.7155C165.011 65.7076 164.912 65.5957 164.92 65.4656C164.927 65.3355 165.04 65.2373 165.169 65.2443C165.783 65.2814 166.416 65.3259 167.051 65.3767C167.181 65.3871 167.278 65.5009 167.267 65.6308C167.257 65.7545 167.154 65.8481 167.032 65.8481ZM163.276 65.6223C163.273 65.6223 163.27 65.6223 163.267 65.6222C162.634 65.5976 162.003 65.5806 161.392 65.5715C161.261 65.5696 161.157 65.4623 161.159 65.3321C161.161 65.2018 161.267 65.0935 161.399 65.0995C162.014 65.1086 162.648 65.1258 163.285 65.1505C163.415 65.1555 163.517 65.2652 163.512 65.3955C163.507 65.5226 163.402 65.6223 163.276 65.6223ZM157.633 65.6171C157.507 65.6171 157.403 65.5177 157.398 65.3907C157.392 65.2605 157.494 65.1507 157.624 65.1453C158.24 65.1201 158.875 65.1036 159.511 65.0962C159.64 65.0981 159.749 65.1991 159.75 65.3294C159.752 65.4596 159.647 65.5666 159.517 65.5682C158.885 65.5756 158.255 65.592 157.643 65.617C157.64 65.617 157.637 65.6171 157.633 65.6171ZM183.685 65.0934C183.601 65.0934 183.519 65.0484 183.477 64.9692C183.415 64.8546 183.458 64.7114 183.573 64.6496C184.103 64.3638 184.624 64.0279 185.121 63.6513C185.225 63.5725 185.373 63.5931 185.452 63.6969C185.531 63.8008 185.51 63.9488 185.406 64.0275C184.89 64.4188 184.348 64.7679 183.796 65.0651C183.761 65.0843 183.722 65.0934 183.685 65.0934ZM186.679 62.839C186.619 62.839 186.558 62.8159 186.512 62.7698C186.42 62.6776 186.421 62.5281 186.513 62.4361C186.936 62.0133 187.35 61.5475 187.743 61.0514C187.824 60.9493 187.973 60.9322 188.075 61.013C188.177 61.0941 188.194 61.2424 188.113 61.3445C187.709 61.8548 187.283 62.3345 186.846 62.7701C186.8 62.816 186.74 62.839 186.679 62.839ZM189.02 59.9029C188.976 59.9029 188.932 59.8908 188.892 59.8653C188.783 59.7948 188.751 59.6488 188.822 59.5392C189.147 59.0332 189.463 58.4926 189.761 57.9321C189.822 57.8169 189.965 57.7732 190.08 57.8342C190.195 57.8952 190.239 58.0383 190.178 58.1533C189.874 58.7253 189.551 59.2775 189.219 59.7944C189.174 59.8645 189.098 59.9029 189.02 59.9029Z" fill="#EAC5B0"/>
<path d="M190.793 56.5762C190.762 56.5762 190.729 56.5697 190.698 56.5561C190.579 56.5034 190.525 56.3641 190.577 56.2449C190.701 55.9645 190.824 55.6742 190.941 55.3822C190.99 55.2614 191.128 55.2029 191.248 55.2515C191.369 55.3003 191.428 55.4378 191.379 55.5586C191.26 55.8553 191.135 56.1503 191.009 56.4354C190.97 56.5236 190.884 56.5762 190.793 56.5762Z" fill="#EAC5B0"/>
<path d="M202.456 37.7637L201.471 60.1465L194.079 52.3877C194.079 52.3877 202.487 37.1361 202.546 37.3883L202.223 37.1192C202.472 37.048 193.231 51.8092 193.231 51.8092L182.858 49.1215L201.939 37.38L202.456 37.7637Z" fill="#EAC5B0"/>
<path opacity="0.07" d="M189.385 110.248H145.77V141.779H189.385V110.248Z" fill="#2E4661"/>
<path d="M191.171 108.419H147.26V140.044H191.171V108.419Z" fill="#305399"/>
<path d="M191.112 108.419H147.26V110.937H191.112V108.419Z" fill="#587BC9"/>
<path opacity="0.03" d="M191.079 116.372V116.274H185.689V110.985H185.592V116.274H179.13V110.985H179.032V116.274H172.571V110.985H172.473V116.274H166.011V110.985H165.914V116.274H159.452V110.985H159.354V116.274H152.892V110.985H152.795V116.274H147.413V116.372H152.795V122.348H147.413V122.446H152.795V128.422H147.413V128.519H152.795V134.496H147.413V134.593H152.795V140.154H152.892V134.593H159.354V140.154H159.452V134.593H165.914V140.154H166.011V134.593H172.473V140.154H172.571V134.593H179.032V140.154H179.13V134.593H185.592V140.154H185.689V134.593H191.079V134.496H185.689V128.519H191.079V128.422H185.689V122.446H191.079V122.348H185.689V116.372H191.079ZM179.032 116.372V122.348H172.571V116.372H179.032ZM166.011 122.446H172.473V128.422H166.011V122.446ZM165.914 128.422H159.452V122.446H165.914V128.422ZM172.571 122.446H179.032V128.422H172.571V122.446ZM172.473 116.372V122.348H166.011V116.372H172.473ZM165.914 116.372V122.348H159.452V116.372H165.914ZM152.892 116.372H159.354V122.348H152.892V116.372ZM152.892 122.446H159.354V128.422H152.892V122.446ZM152.892 134.496V128.519H159.354V134.496H152.892ZM159.452 134.496V128.519H165.914V134.496H159.452ZM166.011 134.496V128.519H172.473V134.496H166.011ZM172.571 134.496V128.519H179.032V134.496H172.571ZM185.592 134.496H179.13V128.519H185.592V134.496ZM185.592 128.422H179.13V122.446H185.592V128.422ZM185.592 122.348H179.13V116.372H185.592V122.348Z" fill="#272525"/>
<path d="M186.446 114.99C185.706 114.99 185.106 115.59 185.106 116.33C185.106 116.704 185.259 117.041 185.506 117.284C183.952 118.622 182.398 119.96 180.845 121.298C180.727 121.399 180.608 121.501 180.49 121.603C180.261 121.418 179.969 121.307 179.651 121.307C178.911 121.307 178.311 121.907 178.311 122.647C178.311 123.118 178.555 123.531 178.922 123.77C178.582 124.589 178.242 125.409 177.901 126.228C177.756 126.577 177.611 126.927 177.466 127.276C177.368 127.253 177.267 127.24 177.163 127.24C176.668 127.24 176.237 127.509 176.005 127.907C174.504 126.959 173.004 126.01 171.503 125.061C170.39 124.358 169.278 123.655 168.166 122.953C168.228 122.799 168.263 122.631 168.263 122.455C168.263 121.715 167.663 121.115 166.923 121.115C166.183 121.115 165.583 121.715 165.583 122.455C165.583 122.549 165.593 122.64 165.611 122.729C163.507 123.588 161.402 124.447 159.297 125.306C159.09 125.39 158.884 125.475 158.678 125.559C158.472 125.084 157.999 124.752 157.449 124.752C156.709 124.752 156.109 125.352 156.109 126.092C156.109 126.476 156.271 126.822 156.53 127.066C156.218 127.421 155.905 127.775 155.593 128.13C154.101 129.824 152.608 131.518 151.116 133.212C150.902 133.067 150.645 132.982 150.367 132.982C149.627 132.982 149.027 133.582 149.027 134.322C149.027 135.062 149.627 135.662 150.367 135.662C151.107 135.662 151.707 135.062 151.707 134.322C151.707 134.036 151.616 133.772 151.464 133.554C152.738 132.108 154.012 130.662 155.286 129.215C155.839 128.588 156.392 127.96 156.945 127.333C157.1 127.396 157.27 127.432 157.449 127.432C158.189 127.432 158.789 126.832 158.789 126.092C158.789 126.074 158.787 126.056 158.786 126.038C158.816 126.026 158.847 126.014 158.877 126.001C161.183 125.06 163.49 124.118 165.796 123.177C166.034 123.548 166.45 123.795 166.923 123.795C167.312 123.795 167.661 123.629 167.905 123.364C168.914 124.002 169.923 124.64 170.931 125.277C172.567 126.311 174.204 127.346 175.84 128.38C175.83 128.445 175.824 128.512 175.824 128.58C175.824 129.32 176.423 129.92 177.163 129.92C177.903 129.92 178.503 129.32 178.503 128.58C178.503 128.117 178.268 127.709 177.911 127.468C178.397 126.298 178.884 125.127 179.37 123.956C179.461 123.976 179.555 123.986 179.652 123.986C180.392 123.986 180.992 123.386 180.992 122.647C180.992 122.4 180.924 122.17 180.808 121.972C181.083 121.735 181.358 121.499 181.633 121.262C182.81 120.248 183.987 119.235 185.164 118.221C185.418 118.002 185.672 117.784 185.926 117.565C186.086 117.633 186.262 117.67 186.447 117.67C187.187 117.67 187.786 117.07 187.786 116.331C187.786 115.59 187.186 114.99 186.446 114.99Z" fill="#F7F7F7"/>
<path d="M194.883 94.4696L189.628 102.886L159.811 84.1024L165.066 75.6855L194.883 94.4696Z" fill="#F7F7F7"/>
<path d="M205.154 106.663L205.093 106.76C203.436 109.415 200.478 110.559 198.487 109.316L175.599 95.2679L181.614 85.1526L204.55 99.6044C206.541 100.848 206.812 104.008 205.154 106.663Z" fill="#305399"/>
<path opacity="0.2" d="M161.897 85.3572L163.341 86.4083L176.406 83.0169L165.52 76.0708L161.897 85.3572Z" fill="#BBBCBF"/>
<path d="M155.827 40.0866C141.835 31.3514 123.411 35.6128 114.675 49.6049C105.94 63.597 110.202 82.0212 124.194 90.7565C138.186 99.4917 156.61 95.2303 165.345 81.2382C174.081 67.2461 169.819 48.822 155.827 40.0866ZM161.805 79.028C154.29 91.065 138.441 94.7309 126.404 87.2163C114.367 79.7016 110.701 63.852 118.216 51.8152C125.73 39.7783 141.58 36.1123 153.617 43.627C165.654 51.1415 169.32 66.9912 161.805 79.028Z" fill="#305399"/>
<path opacity="0.5" d="M158.176 83.5901C168.21 73.5563 168.21 57.2884 158.176 47.2546C148.143 37.2208 131.875 37.2208 121.841 47.2546C111.807 57.2884 111.807 73.5563 121.841 83.5901C131.875 93.6239 148.143 93.6239 158.176 83.5901Z" fill="#D7E8F4"/>
<g opacity="0.22">
<path d="M121.494 64.3868C121.368 56.1943 126.692 48.7813 134.595 46.5075C142.479 44.2395 151.071 47.718 155.219 54.7939C156.388 56.7884 159.567 55.1218 158.397 53.1243C153.622 44.9784 144.156 40.7615 134.926 42.726C125.829 44.6619 119.118 52.4799 118.024 61.6176C117.918 62.5013 117.892 63.3931 117.906 64.2823C117.941 66.5873 121.53 66.7086 121.494 64.3868Z" fill="white"/>
</g>
<path opacity="0.31" d="M160.582 58.3043C161.69 58.9958 162.027 60.454 161.336 61.5615C160.644 62.6689 159.186 63.0062 158.079 62.3149C156.971 61.6235 156.634 60.1652 157.325 59.0577C158.016 57.9501 159.475 57.613 160.582 58.3043Z" fill="white"/>
<path d="M175.903 94.9328L181.625 85.3088C181.822 84.9783 181.736 84.5525 181.427 84.3236L181.327 84.2494C180.968 83.9835 180.457 84.0887 180.233 84.4748L174.598 94.1658C174.387 94.5286 174.515 94.9939 174.882 95.1976L174.895 95.205C175.249 95.4017 175.695 95.2811 175.903 94.9328Z" fill="#7DB5DB"/>
<path d="M165.074 65.6054C165.051 71.7809 162.808 77.7667 158.73 82.4103C154.704 86.9942 149.1 89.9533 143.072 90.8081C136.908 91.6819 130.546 90.1185 125.396 86.6649C120.38 83.3014 116.72 78.1124 115.115 72.3053C113.451 66.2837 114.14 59.7166 116.945 54.1451C119.647 48.778 124.294 44.4585 129.835 42.1377C135.62 39.7148 142.186 39.5693 148.1 41.6173C153.795 43.5894 158.632 47.6895 161.663 52.8769C163.914 56.7295 165.057 61.1518 165.074 65.6054C165.077 66.4868 166.444 66.4871 166.44 65.6054C166.418 59.4185 164.277 53.461 160.392 48.6533C156.598 43.9594 151.162 40.6772 145.274 39.4063C139.166 38.0882 132.708 39.0062 127.177 41.8879C121.86 44.6578 117.573 49.294 115.145 54.7645C112.608 60.4823 112.189 67.0117 113.897 73.0232C115.547 78.8321 119.235 83.9134 124.117 87.4352C129.135 91.056 135.405 92.7522 141.563 92.3285C147.668 91.9083 153.473 89.326 157.95 85.1724C163.358 80.155 166.414 72.9623 166.441 65.6058C166.444 64.7238 165.077 64.7241 165.074 65.6054Z" fill="#F7F7F7"/>
<path d="M201.614 112.299C202.58 109.764 203.979 104.754 204.782 102.321C203.021 96.3959 199.395 86.498 199.019 86.3893C196.822 85.753 194.863 85.1709 192.673 84.5386C192.571 84.5093 191.929 87.7863 191.828 87.7572C191.746 87.7336 191.713 87.0793 191.687 86.3298C191.687 86.3298 191.687 86.3293 191.687 86.3288L191.264 82.0693C191.252 81.7133 191.008 81.4077 190.663 81.3182C189.379 80.9848 186.607 80.3341 186.487 80.5353C186.442 80.6094 186.203 84.307 186.004 85.3633L185.541 85.122L184.938 78.222C184.938 78.222 180.143 77.014 180.049 77.2363C179.939 77.4978 178.873 83.3517 178.873 83.3517C178.873 83.3517 177.018 97.3216 176.807 98.3148C176.499 99.7693 175.527 101.073 175.667 102.523C175.823 104.142 176.532 105.646 177.233 107.12C178.924 110.68 180.616 114.24 182.307 117.8C182.676 120.216 183.063 125.751 183.619 128.13C189.875 126.867 196.158 125.912 203.12 123.696C203.317 123.633 201.198 113.392 201.614 112.299Z" fill="#EAC5B0"/>
<path d="M181.9 137.225L180.456 124.527L205.466 115.266L209.813 130.747L181.986 139.055L181.9 137.225Z" fill="#F7F7F7"/>
<path d="M210.775 122.763C210.775 122.763 185.051 137.463 179.732 138.855L178.263 173.464H222L210.775 122.763Z" fill="#7DB5DB"/>
<path d="M185.771 129.695C185.569 130.456 184.788 130.909 184.027 130.708C183.266 130.506 182.813 129.725 183.015 128.964C183.217 128.203 183.997 127.749 184.758 127.951C185.519 128.153 185.973 128.934 185.771 129.695Z" fill="#3B455A"/>
<path d="M174.232 102.986L170.896 97.7249L166.067 93.2278C166.067 93.2278 165.128 90.5167 168.154 90.4418C171.181 90.3669 173.217 92.8968 174.557 94.9048C175.146 95.788 177.993 98.358 180.203 99.9305C183.094 101.987 180.074 111.045 180.074 111.045C180.074 111.045 174.567 103.488 174.232 102.986Z" fill="#EAC5B0"/>
</svg>
